<?xml version='1.0'?>
<!--
Bitly Generated QR Code
v4
33x33
-->
<svg width='656' height='656'
xmlns='http://www.w3.org/2000/svg'
xmlns:xlink='http://www.w3.org/1999/xlink'>
	<g id='background' style='fill:#ffffff' >
<rect x="0" y="0" width="656" height="656" />
</g>
<g id='pips' style='fill:#000000' >
<path d="M200,64.8L200,64.8A7.2,7.2,0,0,1,207.2,72L207.2,72A7.2,7.2,0,0,1,200,79.2L200,79.2A7.2,7.2,0,0,1,192.8,72L192.8,72A7.2,7.2,0,0,1,200,64.8M248,64.8L248,64.8A7.2,7.2,0,0,1,255.2,72L255.2,72A7.2,7.2,0,0,1,248,79.2L248,79.2A7.2,7.2,0,0,1,240.8,72L240.8,72A7.2,7.2,0,0,1,248,64.8M280,64.8L288,64.8L296,64.8A7.2,7.2,0,0,1,303.2,72L303.2,72A7.2,7.2,0,0,1,296,79.2L288,79.2L280,79.2A7.2,7.2,0,0,1,272.8,72L272.8,72A7.2,7.2,0,0,1,280,64.8M344,64.8L352,64.8L360,64.8A7.2,7.2,0,0,1,367.2,72L367.2,72A7.2,7.2,0,0,1,360,79.2L352,79.2L344,79.2A7.2,7.2,0,0,1,336.8,72L336.8,72A7.2,7.2,0,0,1,344,64.8M424,64.8L424,64.8A7.2,7.2,0,0,1,431.2,72L431.2,72A7.2,7.2,0,0,1,424,79.2L424,79.2A7.2,7.2,0,0,1,416.8,72L416.8,72A7.2,7.2,0,0,1,424,64.8M456,64.8L456,64.8A7.2,7.2,0,0,1,463.2,72L463.2,72A7.2,7.2,0,0,1,456,79.2L456,79.2A7.2,7.2,0,0,1,448.8,72L448.8,72A7.2,7.2,0,0,1,456,64.8ZM264,80.8L264,80.8A7.2,7.2,0,0,1,271.2,88L271.2,88A7.2,7.2,0,0,1,264,95.2L264,95.2A7.2,7.2,0,0,1,256.8,88L256.8,88A7.2,7.2,0,0,1,264,80.8M296,80.8L304,80.8L320,80.8L328,80.8A7.2,7.2,0,0,1,335.2,88L335.2,88A7.2,7.2,0,0,1,328,95.2L320,95.2L304,95.2L296,95.2A7.2,7.2,0,0,1,288.8,88L288.8,88A7.2,7.2,0,0,1,296,80.8M360,80.8L368,80.8L376,80.8A7.2,7.2,0,0,1,383.2,88L383.2,88A7.2,7.2,0,0,1,376,95.2L368,95.2L360,95.2A7.2,7.2,0,0,1,352.8,88L352.8,88A7.2,7.2,0,0,1,360,80.8M408,80.8L416,80.8L424,80.8A7.2,7.2,0,0,1,431.2,88L431.2,88A7.2,7.2,0,0,1,424,95.2L416,95.2L408,95.2A7.2,7.2,0,0,1,400.8,88L400.8,88A7.2,7.2,0,0,1,408,80.8M456,80.8L456,80.8A7.2,7.2,0,0,1,463.2,88L463.2,88A7.2,7.2,0,0,1,456,95.2L456,95.2A7.2,7.2,0,0,1,448.8,88L448.8,88A7.2,7.2,0,0,1,456,80.8ZM200,96.8L208,96.8L216,96.8A7.2,7.2,0,0,1,223.2,104L223.2,104A7.2,7.2,0,0,1,216,111.2L208,111.2L200,111.2A7.2,7.2,0,0,1,192.8,104L192.8,104A7.2,7.2,0,0,1,200,96.8M264,96.8L272,96.8L288,96.8L296,96.8A7.2,7.2,0,0,1,303.2,104L303.2,104A7.2,7.2,0,0,1,296,111.2L288,111.2L272,111.2L264,111.2A7.2,7.2,0,0,1,256.8,104L256.8,104A7.2,7.2,0,0,1,264,96.8M328,96.8L336,96.8L352,96.8L360,96.8A7.2,7.2,0,0,1,367.2,104L367.2,104A7.2,7.2,0,0,1,360,111.2L352,111.2L336,111.2L328,111.2A7.2,7.2,0,0,1,320.8,104L320.8,104A7.2,7.2,0,0,1,328,96.8M408,96.8L416,96.8L432,96.8L448,96.8L456,96.8A7.2,7.2,0,0,1,463.2,104L463.2,104A7.2,7.2,0,0,1,456,111.2L448,111.2L432,111.2L416,111.2L408,111.2A7.2,7.2,0,0,1,400.8,104L400.8,104A7.2,7.2,0,0,1,408,96.8ZM232,112.8L232,112.8A7.2,7.2,0,0,1,239.2,120L239.2,120A7.2,7.2,0,0,1,232,127.2L232,127.2A7.2,7.2,0,0,1,224.8,120L224.8,120A7.2,7.2,0,0,1,232,112.8M264,112.8L264,112.8A7.2,7.2,0,0,1,271.2,120L271.2,120A7.2,7.2,0,0,1,264,127.2L264,127.2A7.2,7.2,0,0,1,256.8,120L256.8,120A7.2,7.2,0,0,1,264,112.8M296,112.8L296,112.8A7.2,7.2,0,0,1,303.2,120L303.2,120A7.2,7.2,0,0,1,296,127.2L296,127.2A7.2,7.2,0,0,1,288.8,120L288.8,120A7.2,7.2,0,0,1,296,112.8M344,112.8L344,112.8A7.2,7.2,0,0,1,351.2,120L351.2,120A7.2,7.2,0,0,1,344,127.2L344,127.2A7.2,7.2,0,0,1,336.8,120L336.8,120A7.2,7.2,0,0,1,344,112.8M376,112.8L384,112.8L400,112.8L408,112.8A7.2,7.2,0,0,1,415.2,120L415.2,120A7.2,7.2,0,0,1,408,127.2L400,127.2L384,127.2L376,127.2A7.2,7.2,0,0,1,368.8,120L368.8,120A7.2,7.2,0,0,1,376,112.8M440,112.8L448,112.8L456,112.8A7.2,7.2,0,0,1,463.2,120L463.2,120A7.2,7.2,0,0,1,456,127.2L448,127.2L440,127.2A7.2,7.2,0,0,1,432.8,120L432.8,120A7.2,7.2,0,0,1,440,112.8ZM200,128.8L200,128.8A7.2,7.2,0,0,1,207.2,136L207.2,136A7.2,7.2,0,0,1,200,143.2L200,143.2A7.2,7.2,0,0,1,192.8,136L192.8,136A7.2,7.2,0,0,1,200,128.8M248,128.8L256,128.8L264,128.8A7.2,7.2,0,0,1,271.2,136L271.2,136A7.2,7.2,0,0,1,264,143.2L256,143.2L248,143.2A7.2,7.2,0,0,1,240.8,136L240.8,136A7.2,7.2,0,0,1,248,128.8M312,128.8L312,128.8A7.2,7.2,0,0,1,319.2,136L319.2,136A7.2,7.2,0,0,1,312,143.2L312,143.2A7.2,7.2,0,0,1,304.8,136L304.8,136A7.2,7.2,0,0,1,312,128.8M344,128.8L344,128.8A7.2,7.2,0,0,1,351.2,136L351.2,136A7.2,7.2,0,0,1,344,143.2L344,143.2A7.2,7.2,0,0,1,336.8,136L336.8,136A7.2,7.2,0,0,1,344,128.8M376,128.8L384,128.8L392,128.8A7.2,7.2,0,0,1,399.2,136L399.2,136A7.2,7.2,0,0,1,392,143.2L384,143.2L376,143.2A7.2,7.2,0,0,1,368.8,136L368.8,136A7.2,7.2,0,0,1,376,128.8M456,128.8L456,128.8A7.2,7.2,0,0,1,463.2,136L463.2,136A7.2,7.2,0,0,1,456,143.2L456,143.2A7.2,7.2,0,0,1,448.8,136L448.8,136A7.2,7.2,0,0,1,456,128.8ZM232,144.8L232,144.8A7.2,7.2,0,0,1,239.2,152L239.2,152A7.2,7.2,0,0,1,232,159.2L232,159.2A7.2,7.2,0,0,1,224.8,152L224.8,152A7.2,7.2,0,0,1,232,144.8M264,144.8L272,144.8L280,144.8A7.2,7.2,0,0,1,287.2,152L287.2,152A7.2,7.2,0,0,1,280,159.2L272,159.2L264,159.2A7.2,7.2,0,0,1,256.8,152L256.8,152A7.2,7.2,0,0,1,264,144.8M312,144.8L320,144.8L336,144.8L352,144.8L360,144.8A7.2,7.2,0,0,1,367.2,152L367.2,152A7.2,7.2,0,0,1,360,159.2L352,159.2L336,159.2L320,159.2L312,159.2A7.2,7.2,0,0,1,304.8,152L304.8,152A7.2,7.2,0,0,1,312,144.8M424,144.8L424,144.8A7.2,7.2,0,0,1,431.2,152L431.2,152A7.2,7.2,0,0,1,424,159.2L424,159.2A7.2,7.2,0,0,1,416.8,152L416.8,152A7.2,7.2,0,0,1,424,144.8M456,144.8L456,144.8A7.2,7.2,0,0,1,463.2,152L463.2,152A7.2,7.2,0,0,1,456,159.2L456,159.2A7.2,7.2,0,0,1,448.8,152L448.8,152A7.2,7.2,0,0,1,456,144.8ZM200,160.8L200,160.8A7.2,7.2,0,0,1,207.2,168L207.2,168A7.2,7.2,0,0,1,200,175.2L200,175.2A7.2,7.2,0,0,1,192.8,168L192.8,168A7.2,7.2,0,0,1,200,160.8M232,160.8L232,160.8A7.2,7.2,0,0,1,239.2,168L239.2,168A7.2,7.2,0,0,1,232,175.2L232,175.2A7.2,7.2,0,0,1,224.8,168L224.8,168A7.2,7.2,0,0,1,232,160.8M264,160.8L264,160.8A7.2,7.2,0,0,1,271.2,168L271.2,168A7.2,7.2,0,0,1,264,175.2L264,175.2A7.2,7.2,0,0,1,256.8,168L256.8,168A7.2,7.2,0,0,1,264,160.8M296,160.8L296,160.8A7.2,7.2,0,0,1,303.2,168L303.2,168A7.2,7.2,0,0,1,296,175.2L296,175.2A7.2,7.2,0,0,1,288.8,168L288.8,168A7.2,7.2,0,0,1,296,160.8M328,160.8L328,160.8A7.2,7.2,0,0,1,335.2,168L335.2,168A7.2,7.2,0,0,1,328,175.2L328,175.2A7.2,7.2,0,0,1,320.8,168L320.8,168A7.2,7.2,0,0,1,328,160.8M360,160.8L360,160.8A7.2,7.2,0,0,1,367.2,168L367.2,168A7.2,7.2,0,0,1,360,175.2L360,175.2A7.2,7.2,0,0,1,352.8,168L352.8,168A7.2,7.2,0,0,1,360,160.8M392,160.8L392,160.8A7.2,7.2,0,0,1,399.2,168L399.2,168A7.2,7.2,0,0,1,392,175.2L392,175.2A7.2,7.2,0,0,1,384.8,168L384.8,168A7.2,7.2,0,0,1,392,160.8M424,160.8L424,160.8A7.2,7.2,0,0,1,431.2,168L431.2,168A7.2,7.2,0,0,1,424,175.2L424,175.2A7.2,7.2,0,0,1,416.8,168L416.8,168A7.2,7.2,0,0,1,424,160.8M456,160.8L456,160.8A7.2,7.2,0,0,1,463.2,168L463.2,168A7.2,7.2,0,0,1,456,175.2L456,175.2A7.2,7.2,0,0,1,448.8,168L448.8,168A7.2,7.2,0,0,1,456,160.8ZM200,176.8L208,176.8L216,176.8A7.2,7.2,0,0,1,223.2,184L223.2,184A7.2,7.2,0,0,1,216,191.2L208,191.2L200,191.2A7.2,7.2,0,0,1,192.8,184L192.8,184A7.2,7.2,0,0,1,200,176.8M264,176.8L264,176.8A7.2,7.2,0,0,1,271.2,184L271.2,184A7.2,7.2,0,0,1,264,191.2L264,191.2A7.2,7.2,0,0,1,256.8,184L256.8,184A7.2,7.2,0,0,1,264,176.8M312,176.8L312,176.8A7.2,7.2,0,0,1,319.2,184L319.2,184A7.2,7.2,0,0,1,312,191.2L312,191.2A7.2,7.2,0,0,1,304.8,184L304.8,184A7.2,7.2,0,0,1,312,176.8M344,176.8L352,176.8L360,176.8A7.2,7.2,0,0,1,367.2,184L367.2,184A7.2,7.2,0,0,1,360,191.2L352,191.2L344,191.2A7.2,7.2,0,0,1,336.8,184L336.8,184A7.2,7.2,0,0,1,344,176.8M440,176.8L448,176.8L456,176.8A7.2,7.2,0,0,1,463.2,184L463.2,184A7.2,7.2,0,0,1,456,191.2L448,191.2L440,191.2A7.2,7.2,0,0,1,432.8,184L432.8,184A7.2,7.2,0,0,1,440,176.8ZM152,192.8L160,192.8L168,192.8A7.2,7.2,0,0,1,175.2,200L175.2,200A7.2,7.2,0,0,1,168,207.2L160,207.2L152,207.2A7.2,7.2,0,0,1,144.8,200L144.8,200A7.2,7.2,0,0,1,152,192.8M232,192.8L240,192.8L248,192.8A7.2,7.2,0,0,1,255.2,200L255.2,200A7.2,7.2,0,0,1,248,207.2L240,207.2L232,207.2A7.2,7.2,0,0,1,224.8,200L224.8,200A7.2,7.2,0,0,1,232,192.8M280,192.8L288,192.8L304,192.8L312,192.8A7.2,7.2,0,0,1,319.2,200L319.2,200A7.2,7.2,0,0,1,312,207.2L304,207.2L288,207.2L280,207.2A7.2,7.2,0,0,1,272.8,200L272.8,200A7.2,7.2,0,0,1,280,192.8M360,192.8L368,192.8L384,192.8L400,192.8L416,192.8L424,192.8A7.2,7.2,0,0,1,431.2,200L431.2,200A7.2,7.2,0,0,1,424,207.2L416,207.2L400,207.2L384,207.2L368,207.2L360,207.2A7.2,7.2,0,0,1,352.8,200L352.8,200A7.2,7.2,0,0,1,360,192.8M456,192.8L456,192.8A7.2,7.2,0,0,1,463.2,200L463.2,200A7.2,7.2,0,0,1,456,207.2L456,207.2A7.2,7.2,0,0,1,448.8,200L448.8,200A7.2,7.2,0,0,1,456,192.8M488,192.8L488,192.8A7.2,7.2,0,0,1,495.2,200L495.2,200A7.2,7.2,0,0,1,488,207.2L488,207.2A7.2,7.2,0,0,1,480.8,200L480.8,200A7.2,7.2,0,0,1,488,192.8M520,192.8L520,192.8A7.2,7.2,0,0,1,527.2,200L527.2,200A7.2,7.2,0,0,1,520,207.2L520,207.2A7.2,7.2,0,0,1,512.8,200L512.8,200A7.2,7.2,0,0,1,520,192.8M552,192.8L552,192.8A7.2,7.2,0,0,1,559.2,200L559.2,200A7.2,7.2,0,0,1,552,207.2L552,207.2A7.2,7.2,0,0,1,544.8,200L544.8,200A7.2,7.2,0,0,1,552,192.8M584,192.8L584,192.8A7.2,7.2,0,0,1,591.2,200L591.2,200A7.2,7.2,0,0,1,584,207.2L584,207.2A7.2,7.2,0,0,1,576.8,200L576.8,200A7.2,7.2,0,0,1,584,192.8ZM104,208.8L112,208.8L128,208.8L136,208.8A7.2,7.2,0,0,1,143.2,216L143.2,216A7.2,7.2,0,0,1,136,223.2L128,223.2L112,223.2L104,223.2A7.2,7.2,0,0,1,96.8,216L96.8,216A7.2,7.2,0,0,1,104,208.8M184,208.8L184,208.8A7.2,7.2,0,0,1,191.2,216L191.2,216A7.2,7.2,0,0,1,184,223.2L184,223.2A7.2,7.2,0,0,1,176.8,216L176.8,216A7.2,7.2,0,0,1,184,208.8M216,208.8L224,208.8L240,208.8L256,208.8L272,208.8L288,208.8L296,208.8A7.2,7.2,0,0,1,303.2,216L303.2,216A7.2,7.2,0,0,1,296,223.2L288,223.2L272,223.2L256,223.2L240,223.2L224,223.2L216,223.2A7.2,7.2,0,0,1,208.8,216L208.8,216A7.2,7.2,0,0,1,216,208.8M344,208.8L352,208.8L368,208.8L384,208.8L400,208.8L408,208.8A7.2,7.2,0,0,1,415.2,216L415.2,216A7.2,7.2,0,0,1,408,223.2L400,223.2L384,223.2L368,223.2L352,223.2L344,223.2A7.2,7.2,0,0,1,336.8,216L336.8,216A7.2,7.2,0,0,1,344,208.8M440,208.8L440,208.8A7.2,7.2,0,0,1,447.2,216L447.2,216A7.2,7.2,0,0,1,440,223.2L440,223.2A7.2,7.2,0,0,1,432.8,216L432.8,216A7.2,7.2,0,0,1,440,208.8M472,208.8L472,208.8A7.2,7.2,0,0,1,479.2,216L479.2,216A7.2,7.2,0,0,1,472,223.2L472,223.2A7.2,7.2,0,0,1,464.8,216L464.8,216A7.2,7.2,0,0,1,472,208.8M504,208.8L512,208.8L528,208.8L536,208.8A7.2,7.2,0,0,1,543.2,216L543.2,216A7.2,7.2,0,0,1,536,223.2L528,223.2L512,223.2L504,223.2A7.2,7.2,0,0,1,496.8,216L496.8,216A7.2,7.2,0,0,1,504,208.8ZM88,224.8L88,224.8A7.2,7.2,0,0,1,95.2,232L95.2,232A7.2,7.2,0,0,1,88,239.2L88,239.2A7.2,7.2,0,0,1,80.8,232L80.8,232A7.2,7.2,0,0,1,88,224.8M120,224.8L120,224.8A7.2,7.2,0,0,1,127.2,232L127.2,232A7.2,7.2,0,0,1,120,239.2L120,239.2A7.2,7.2,0,0,1,112.8,232L112.8,232A7.2,7.2,0,0,1,120,224.8M152,224.8L160,224.8L176,224.8L192,224.8L208,224.8L216,224.8A7.2,7.2,0,0,1,223.2,232L223.2,232A7.2,7.2,0,0,1,216,239.2L208,239.2L192,239.2L176,239.2L160,239.2L152,239.2A7.2,7.2,0,0,1,144.8,232L144.8,232A7.2,7.2,0,0,1,152,224.8M264,224.8L264,224.8A7.2,7.2,0,0,1,271.2,232L271.2,232A7.2,7.2,0,0,1,264,239.2L264,239.2A7.2,7.2,0,0,1,256.8,232L256.8,232A7.2,7.2,0,0,1,264,224.8M312,224.8L312,224.8A7.2,7.2,0,0,1,319.2,232L319.2,232A7.2,7.2,0,0,1,312,239.2L312,239.2A7.2,7.2,0,0,1,304.8,232L304.8,232A7.2,7.2,0,0,1,312,224.8M392,224.8L392,224.8A7.2,7.2,0,0,1,399.2,232L399.2,232A7.2,7.2,0,0,1,392,239.2L392,239.2A7.2,7.2,0,0,1,384.8,232L384.8,232A7.2,7.2,0,0,1,392,224.8M424,224.8L424,224.8A7.2,7.2,0,0,1,431.2,232L431.2,232A7.2,7.2,0,0,1,424,239.2L424,239.2A7.2,7.2,0,0,1,416.8,232L416.8,232A7.2,7.2,0,0,1,424,224.8M472,224.8L480,224.8L496,224.8L504,224.8A7.2,7.2,0,0,1,511.2,232L511.2,232A7.2,7.2,0,0,1,504,239.2L496,239.2L480,239.2L472,239.2A7.2,7.2,0,0,1,464.8,232L464.8,232A7.2,7.2,0,0,1,472,224.8M568,224.8L568,224.8A7.2,7.2,0,0,1,575.2,232L575.2,232A7.2,7.2,0,0,1,568,239.2L568,239.2A7.2,7.2,0,0,1,560.8,232L560.8,232A7.2,7.2,0,0,1,568,224.8ZM104,240.8L104,240.8A7.2,7.2,0,0,1,111.2,248L111.2,248A7.2,7.2,0,0,1,104,255.2L104,255.2A7.2,7.2,0,0,1,96.8,248L96.8,248A7.2,7.2,0,0,1,104,240.8M136,240.8L136,240.8A7.2,7.2,0,0,1,143.2,248L143.2,248A7.2,7.2,0,0,1,136,255.2L136,255.2A7.2,7.2,0,0,1,128.8,248L128.8,248A7.2,7.2,0,0,1,136,240.8M328,240.8L336,240.8L344,240.8A7.2,7.2,0,0,1,351.2,248L351.2,248A7.2,7.2,0,0,1,344,255.2L336,255.2L328,255.2A7.2,7.2,0,0,1,320.8,248L320.8,248A7.2,7.2,0,0,1,328,240.8M408,240.8L408,240.8A7.2,7.2,0,0,1,415.2,248L415.2,248A7.2,7.2,0,0,1,408,255.2L408,255.2A7.2,7.2,0,0,1,400.8,248L400.8,248A7.2,7.2,0,0,1,408,240.8M488,240.8L496,240.8L504,240.8A7.2,7.2,0,0,1,511.2,248L511.2,248A7.2,7.2,0,0,1,504,255.2L496,255.2L488,255.2A7.2,7.2,0,0,1,480.8,248L480.8,248A7.2,7.2,0,0,1,488,240.8M536,240.8L544,240.8L552,240.8A7.2,7.2,0,0,1,559.2,248L559.2,248A7.2,7.2,0,0,1,552,255.2L544,255.2L536,255.2A7.2,7.2,0,0,1,528.8,248L528.8,248A7.2,7.2,0,0,1,536,240.8M584,240.8L584,240.8A7.2,7.2,0,0,1,591.2,248L591.2,248A7.2,7.2,0,0,1,584,255.2L584,255.2A7.2,7.2,0,0,1,576.8,248L576.8,248A7.2,7.2,0,0,1,584,240.8ZM88,256.8L96,256.8L104,256.8A7.2,7.2,0,0,1,111.2,264L111.2,264A7.2,7.2,0,0,1,104,271.2L96,271.2L88,271.2A7.2,7.2,0,0,1,80.8,264L80.8,264A7.2,7.2,0,0,1,88,256.8M136,256.8L144,256.8L160,256.8L176,256.8L192,256.8L200,256.8A7.2,7.2,0,0,1,207.2,264L207.2,264A7.2,7.2,0,0,1,200,271.2L192,271.2L176,271.2L160,271.2L144,271.2L136,271.2A7.2,7.2,0,0,1,128.8,264L128.8,264A7.2,7.2,0,0,1,136,256.8M232,256.8L240,256.8L256,256.8L264,256.8A7.2,7.2,0,0,1,271.2,264L271.2,264A7.2,7.2,0,0,1,264,271.2L256,271.2L240,271.2L232,271.2A7.2,7.2,0,0,1,224.8,264L224.8,264A7.2,7.2,0,0,1,232,256.8M344,256.8L352,256.8L368,256.8L376,256.8A7.2,7.2,0,0,1,383.2,264L383.2,264A7.2,7.2,0,0,1,376,271.2L368,271.2L352,271.2L344,271.2A7.2,7.2,0,0,1,336.8,264L336.8,264A7.2,7.2,0,0,1,344,256.8M408,256.8L408,256.8A7.2,7.2,0,0,1,415.2,264L415.2,264A7.2,7.2,0,0,1,408,271.2L408,271.2A7.2,7.2,0,0,1,400.8,264L400.8,264A7.2,7.2,0,0,1,408,256.8M456,256.8L456,256.8A7.2,7.2,0,0,1,463.2,264L463.2,264A7.2,7.2,0,0,1,456,271.2L456,271.2A7.2,7.2,0,0,1,448.8,264L448.8,264A7.2,7.2,0,0,1,456,256.8M488,256.8L488,256.8A7.2,7.2,0,0,1,495.2,264L495.2,264A7.2,7.2,0,0,1,488,271.2L488,271.2A7.2,7.2,0,0,1,480.8,264L480.8,264A7.2,7.2,0,0,1,488,256.8M552,256.8L560,256.8L576,256.8L584,256.8A7.2,7.2,0,0,1,591.2,264L591.2,264A7.2,7.2,0,0,1,584,271.2L576,271.2L560,271.2L552,271.2A7.2,7.2,0,0,1,544.8,264L544.8,264A7.2,7.2,0,0,1,552,256.8ZM72,272.8L72,272.8A7.2,7.2,0,0,1,79.2,280L79.2,280A7.2,7.2,0,0,1,72,287.2L72,287.2A7.2,7.2,0,0,1,64.8,280L64.8,280A7.2,7.2,0,0,1,72,272.8M104,272.8L112,272.8L128,272.8L136,272.8A7.2,7.2,0,0,1,143.2,280L143.2,280A7.2,7.2,0,0,1,136,287.2L128,287.2L112,287.2L104,287.2A7.2,7.2,0,0,1,96.8,280L96.8,280A7.2,7.2,0,0,1,104,272.8M216,272.8L216,272.8A7.2,7.2,0,0,1,223.2,280L223.2,280A7.2,7.2,0,0,1,216,287.2L216,287.2A7.2,7.2,0,0,1,208.8,280L208.8,280A7.2,7.2,0,0,1,216,272.8M248,272.8L248,272.8A7.2,7.2,0,0,1,255.2,280L255.2,280A7.2,7.2,0,0,1,248,287.2L248,287.2A7.2,7.2,0,0,1,240.8,280L240.8,280A7.2,7.2,0,0,1,248,272.8M312,272.8L320,272.8L336,272.8L344,272.8A7.2,7.2,0,0,1,351.2,280L351.2,280A7.2,7.2,0,0,1,344,287.2L336,287.2L320,287.2L312,287.2A7.2,7.2,0,0,1,304.8,280L304.8,280A7.2,7.2,0,0,1,312,272.8M376,272.8L376,272.8A7.2,7.2,0,0,1,383.2,280L383.2,280A7.2,7.2,0,0,1,376,287.2L376,287.2A7.2,7.2,0,0,1,368.8,280L368.8,280A7.2,7.2,0,0,1,376,272.8M408,272.8L408,272.8A7.2,7.2,0,0,1,415.2,280L415.2,280A7.2,7.2,0,0,1,408,287.2L408,287.2A7.2,7.2,0,0,1,400.8,280L400.8,280A7.2,7.2,0,0,1,408,272.8M440,272.8L448,272.8L456,272.8A7.2,7.2,0,0,1,463.2,280L463.2,280A7.2,7.2,0,0,1,456,287.2L448,287.2L440,287.2A7.2,7.2,0,0,1,432.8,280L432.8,280A7.2,7.2,0,0,1,440,272.8M488,272.8L488,272.8A7.2,7.2,0,0,1,495.2,280L495.2,280A7.2,7.2,0,0,1,488,287.2L488,287.2A7.2,7.2,0,0,1,480.8,280L480.8,280A7.2,7.2,0,0,1,488,272.8M536,272.8L544,272.8L552,272.8A7.2,7.2,0,0,1,559.2,280L559.2,280A7.2,7.2,0,0,1,552,287.2L544,287.2L536,287.2A7.2,7.2,0,0,1,528.8,280L528.8,280A7.2,7.2,0,0,1,536,272.8M584,272.8L584,272.8A7.2,7.2,0,0,1,591.2,280L591.2,280A7.2,7.2,0,0,1,584,287.2L584,287.2A7.2,7.2,0,0,1,576.8,280L576.8,280A7.2,7.2,0,0,1,584,272.8ZM88,288.8L96,288.8L112,288.8L128,288.8L144,288.8L160,288.8L176,288.8L184,288.8A7.2,7.2,0,0,1,191.2,296L191.2,296A7.2,7.2,0,0,1,184,303.2L176,303.2L160,303.2L144,303.2L128,303.2L112,303.2L96,303.2L88,303.2A7.2,7.2,0,0,1,80.8,296L80.8,296A7.2,7.2,0,0,1,88,288.8M248,288.8L256,288.8L264,288.8A7.2,7.2,0,0,1,271.2,296L271.2,296A7.2,7.2,0,0,1,264,303.2L256,303.2L248,303.2A7.2,7.2,0,0,1,240.8,296L240.8,296A7.2,7.2,0,0,1,248,288.8M296,288.8L296,288.8A7.2,7.2,0,0,1,303.2,296L303.2,296A7.2,7.2,0,0,1,296,303.2L296,303.2A7.2,7.2,0,0,1,288.8,296L288.8,296A7.2,7.2,0,0,1,296,288.8M328,288.8L328,288.8A7.2,7.2,0,0,1,335.2,296L335.2,296A7.2,7.2,0,0,1,328,303.2L328,303.2A7.2,7.2,0,0,1,320.8,296L320.8,296A7.2,7.2,0,0,1,328,288.8M376,288.8L384,288.8L392,288.8A7.2,7.2,0,0,1,399.2,296L399.2,296A7.2,7.2,0,0,1,392,303.2L384,303.2L376,303.2A7.2,7.2,0,0,1,368.8,296L368.8,296A7.2,7.2,0,0,1,376,288.8M424,288.8L424,288.8A7.2,7.2,0,0,1,431.2,296L431.2,296A7.2,7.2,0,0,1,424,303.2L424,303.2A7.2,7.2,0,0,1,416.8,296L416.8,296A7.2,7.2,0,0,1,424,288.8M504,288.8L512,288.8L520,288.8A7.2,7.2,0,0,1,527.2,296L527.2,296A7.2,7.2,0,0,1,520,303.2L512,303.2L504,303.2A7.2,7.2,0,0,1,496.8,296L496.8,296A7.2,7.2,0,0,1,504,288.8M552,288.8L560,288.8L568,288.8A7.2,7.2,0,0,1,575.2,296L575.2,296A7.2,7.2,0,0,1,568,303.2L560,303.2L552,303.2A7.2,7.2,0,0,1,544.8,296L544.8,296A7.2,7.2,0,0,1,552,288.8ZM88,304.8L88,304.8A7.2,7.2,0,0,1,95.2,312L95.2,312A7.2,7.2,0,0,1,88,319.2L88,319.2A7.2,7.2,0,0,1,80.8,312L80.8,312A7.2,7.2,0,0,1,88,304.8M136,304.8L144,304.8L152,304.8A7.2,7.2,0,0,1,159.2,312L159.2,312A7.2,7.2,0,0,1,152,319.2L144,319.2L136,319.2A7.2,7.2,0,0,1,128.8,312L128.8,312A7.2,7.2,0,0,1,136,304.8M216,304.8L216,304.8A7.2,7.2,0,0,1,223.2,312L223.2,312A7.2,7.2,0,0,1,216,319.2L216,319.2A7.2,7.2,0,0,1,208.8,312L208.8,312A7.2,7.2,0,0,1,216,304.8M248,304.8L256,304.8L272,304.8L280,304.8A7.2,7.2,0,0,1,287.2,312L287.2,312A7.2,7.2,0,0,1,280,319.2L272,319.2L256,319.2L248,319.2A7.2,7.2,0,0,1,240.8,312L240.8,312A7.2,7.2,0,0,1,248,304.8M328,304.8L328,304.8A7.2,7.2,0,0,1,335.2,312L335.2,312A7.2,7.2,0,0,1,328,319.2L328,319.2A7.2,7.2,0,0,1,320.8,312L320.8,312A7.2,7.2,0,0,1,328,304.8M360,304.8L368,304.8L376,304.8A7.2,7.2,0,0,1,383.2,312L383.2,312A7.2,7.2,0,0,1,376,319.2L368,319.2L360,319.2A7.2,7.2,0,0,1,352.8,312L352.8,312A7.2,7.2,0,0,1,360,304.8M456,304.8L464,304.8L472,304.8A7.2,7.2,0,0,1,479.2,312L479.2,312A7.2,7.2,0,0,1,472,319.2L464,319.2L456,319.2A7.2,7.2,0,0,1,448.8,312L448.8,312A7.2,7.2,0,0,1,456,304.8M520,304.8L520,304.8A7.2,7.2,0,0,1,527.2,312L527.2,312A7.2,7.2,0,0,1,520,319.2L520,319.2A7.2,7.2,0,0,1,512.8,312L512.8,312A7.2,7.2,0,0,1,520,304.8M552,304.8L552,304.8A7.2,7.2,0,0,1,559.2,312L559.2,312A7.2,7.2,0,0,1,552,319.2L552,319.2A7.2,7.2,0,0,1,544.8,312L544.8,312A7.2,7.2,0,0,1,552,304.8M584,304.8L584,304.8A7.2,7.2,0,0,1,591.2,312L591.2,312A7.2,7.2,0,0,1,584,319.2L584,319.2A7.2,7.2,0,0,1,576.8,312L576.8,312A7.2,7.2,0,0,1,584,304.8ZM72,320.8L72,320.8A7.2,7.2,0,0,1,79.2,328L79.2,328A7.2,7.2,0,0,1,72,335.2L72,335.2A7.2,7.2,0,0,1,64.8,328L64.8,328A7.2,7.2,0,0,1,72,320.8M152,320.8L160,320.8L168,320.8A7.2,7.2,0,0,1,175.2,328L175.2,328A7.2,7.2,0,0,1,168,335.2L160,335.2L152,335.2A7.2,7.2,0,0,1,144.8,328L144.8,328A7.2,7.2,0,0,1,152,320.8M200,320.8L200,320.8A7.2,7.2,0,0,1,207.2,328L207.2,328A7.2,7.2,0,0,1,200,335.2L200,335.2A7.2,7.2,0,0,1,192.8,328L192.8,328A7.2,7.2,0,0,1,200,320.8M248,320.8L248,320.8A7.2,7.2,0,0,1,255.2,328L255.2,328A7.2,7.2,0,0,1,248,335.2L248,335.2A7.2,7.2,0,0,1,240.8,328L240.8,328A7.2,7.2,0,0,1,248,320.8M296,320.8L304,320.8L312,320.8A7.2,7.2,0,0,1,319.2,328L319.2,328A7.2,7.2,0,0,1,312,335.2L304,335.2L296,335.2A7.2,7.2,0,0,1,288.8,328L288.8,328A7.2,7.2,0,0,1,296,320.8M392,320.8L392,320.8A7.2,7.2,0,0,1,399.2,328L399.2,328A7.2,7.2,0,0,1,392,335.2L392,335.2A7.2,7.2,0,0,1,384.8,328L384.8,328A7.2,7.2,0,0,1,392,320.8M440,320.8L440,320.8A7.2,7.2,0,0,1,447.2,328L447.2,328A7.2,7.2,0,0,1,440,335.2L440,335.2A7.2,7.2,0,0,1,432.8,328L432.8,328A7.2,7.2,0,0,1,440,320.8M472,320.8L472,320.8A7.2,7.2,0,0,1,479.2,328L479.2,328A7.2,7.2,0,0,1,472,335.2L472,335.2A7.2,7.2,0,0,1,464.8,328L464.8,328A7.2,7.2,0,0,1,472,320.8M504,320.8L512,320.8L528,320.8L536,320.8A7.2,7.2,0,0,1,543.2,328L543.2,328A7.2,7.2,0,0,1,536,335.2L528,335.2L512,335.2L504,335.2A7.2,7.2,0,0,1,496.8,328L496.8,328A7.2,7.2,0,0,1,504,320.8ZM88,336.8L96,336.8L112,336.8L128,336.8L144,336.8L152,336.8A7.2,7.2,0,0,1,159.2,344L159.2,344A7.2,7.2,0,0,1,152,351.2L144,351.2L128,351.2L112,351.2L96,351.2L88,351.2A7.2,7.2,0,0,1,80.8,344L80.8,344A7.2,7.2,0,0,1,88,336.8M232,336.8L240,336.8L248,336.8A7.2,7.2,0,0,1,255.2,344L255.2,344A7.2,7.2,0,0,1,248,351.2L240,351.2L232,351.2A7.2,7.2,0,0,1,224.8,344L224.8,344A7.2,7.2,0,0,1,232,336.8M344,336.8L344,336.8A7.2,7.2,0,0,1,351.2,344L351.2,344A7.2,7.2,0,0,1,344,351.2L344,351.2A7.2,7.2,0,0,1,336.8,344L336.8,344A7.2,7.2,0,0,1,344,336.8M440,336.8L448,336.8L456,336.8A7.2,7.2,0,0,1,463.2,344L463.2,344A7.2,7.2,0,0,1,456,351.2L448,351.2L440,351.2A7.2,7.2,0,0,1,432.8,344L432.8,344A7.2,7.2,0,0,1,440,336.8M488,336.8L496,336.8L504,336.8A7.2,7.2,0,0,1,511.2,344L511.2,344A7.2,7.2,0,0,1,504,351.2L496,351.2L488,351.2A7.2,7.2,0,0,1,480.8,344L480.8,344A7.2,7.2,0,0,1,488,336.8M568,336.8L576,336.8L584,336.8A7.2,7.2,0,0,1,591.2,344L591.2,344A7.2,7.2,0,0,1,584,351.2L576,351.2L568,351.2A7.2,7.2,0,0,1,560.8,344L560.8,344A7.2,7.2,0,0,1,568,336.8ZM104,352.8L112,352.8L120,352.8A7.2,7.2,0,0,1,127.2,360L127.2,360A7.2,7.2,0,0,1,120,367.2L112,367.2L104,367.2A7.2,7.2,0,0,1,96.8,360L96.8,360A7.2,7.2,0,0,1,104,352.8M168,352.8L168,352.8A7.2,7.2,0,0,1,175.2,360L175.2,360A7.2,7.2,0,0,1,168,367.2L168,367.2A7.2,7.2,0,0,1,160.8,360L160.8,360A7.2,7.2,0,0,1,168,352.8M216,352.8L216,352.8A7.2,7.2,0,0,1,223.2,360L223.2,360A7.2,7.2,0,0,1,216,367.2L216,367.2A7.2,7.2,0,0,1,208.8,360L208.8,360A7.2,7.2,0,0,1,216,352.8M248,352.8L256,352.8L272,352.8L288,352.8L296,352.8A7.2,7.2,0,0,1,303.2,360L303.2,360A7.2,7.2,0,0,1,296,367.2L288,367.2L272,367.2L256,367.2L248,367.2A7.2,7.2,0,0,1,240.8,360L240.8,360A7.2,7.2,0,0,1,248,352.8M376,352.8L384,352.8L392,352.8A7.2,7.2,0,0,1,399.2,360L399.2,360A7.2,7.2,0,0,1,392,367.2L384,367.2L376,367.2A7.2,7.2,0,0,1,368.8,360L368.8,360A7.2,7.2,0,0,1,376,352.8M440,352.8L440,352.8A7.2,7.2,0,0,1,447.2,360L447.2,360A7.2,7.2,0,0,1,440,367.2L440,367.2A7.2,7.2,0,0,1,432.8,360L432.8,360A7.2,7.2,0,0,1,440,352.8M536,352.8L544,352.8L560,352.8L576,352.8L584,352.8A7.2,7.2,0,0,1,591.2,360L591.2,360A7.2,7.2,0,0,1,584,367.2L576,367.2L560,367.2L544,367.2L536,367.2A7.2,7.2,0,0,1,528.8,360L528.8,360A7.2,7.2,0,0,1,536,352.8ZM120,368.8L128,368.8L144,368.8L152,368.8A7.2,7.2,0,0,1,159.2,376L159.2,376A7.2,7.2,0,0,1,152,383.2L144,383.2L128,383.2L120,383.2A7.2,7.2,0,0,1,112.8,376L112.8,376A7.2,7.2,0,0,1,120,368.8M184,368.8L192,368.8L200,368.8A7.2,7.2,0,0,1,207.2,376L207.2,376A7.2,7.2,0,0,1,200,383.2L192,383.2L184,383.2A7.2,7.2,0,0,1,176.8,376L176.8,376A7.2,7.2,0,0,1,184,368.8M232,368.8L232,368.8A7.2,7.2,0,0,1,239.2,376L239.2,376A7.2,7.2,0,0,1,232,383.2L232,383.2A7.2,7.2,0,0,1,224.8,376L224.8,376A7.2,7.2,0,0,1,232,368.8M264,368.8L264,368.8A7.2,7.2,0,0,1,271.2,376L271.2,376A7.2,7.2,0,0,1,264,383.2L264,383.2A7.2,7.2,0,0,1,256.8,376L256.8,376A7.2,7.2,0,0,1,264,368.8M296,368.8L304,368.8L312,368.8A7.2,7.2,0,0,1,319.2,376L319.2,376A7.2,7.2,0,0,1,312,383.2L304,383.2L296,383.2A7.2,7.2,0,0,1,288.8,376L288.8,376A7.2,7.2,0,0,1,296,368.8M344,368.8L344,368.8A7.2,7.2,0,0,1,351.2,376L351.2,376A7.2,7.2,0,0,1,344,383.2L344,383.2A7.2,7.2,0,0,1,336.8,376L336.8,376A7.2,7.2,0,0,1,344,368.8M376,368.8L376,368.8A7.2,7.2,0,0,1,383.2,376L383.2,376A7.2,7.2,0,0,1,376,383.2L376,383.2A7.2,7.2,0,0,1,368.8,376L368.8,376A7.2,7.2,0,0,1,376,368.8M440,368.8L448,368.8L464,368.8L472,368.8A7.2,7.2,0,0,1,479.2,376L479.2,376A7.2,7.2,0,0,1,472,383.2L464,383.2L448,383.2L440,383.2A7.2,7.2,0,0,1,432.8,376L432.8,376A7.2,7.2,0,0,1,440,368.8M504,368.8L512,368.8L528,368.8L544,368.8L552,368.8A7.2,7.2,0,0,1,559.2,376L559.2,376A7.2,7.2,0,0,1,552,383.2L544,383.2L528,383.2L512,383.2L504,383.2A7.2,7.2,0,0,1,496.8,376L496.8,376A7.2,7.2,0,0,1,504,368.8M584,368.8L584,368.8A7.2,7.2,0,0,1,591.2,376L591.2,376A7.2,7.2,0,0,1,584,383.2L584,383.2A7.2,7.2,0,0,1,576.8,376L576.8,376A7.2,7.2,0,0,1,584,368.8ZM72,384.8L72,384.8A7.2,7.2,0,0,1,79.2,392L79.2,392A7.2,7.2,0,0,1,72,399.2L72,399.2A7.2,7.2,0,0,1,64.8,392L64.8,392A7.2,7.2,0,0,1,72,384.8M104,384.8L104,384.8A7.2,7.2,0,0,1,111.2,392L111.2,392A7.2,7.2,0,0,1,104,399.2L104,399.2A7.2,7.2,0,0,1,96.8,392L96.8,392A7.2,7.2,0,0,1,104,384.8M168,384.8L176,384.8L192,384.8L200,384.8A7.2,7.2,0,0,1,207.2,392L207.2,392A7.2,7.2,0,0,1,200,399.2L192,399.2L176,399.2L168,399.2A7.2,7.2,0,0,1,160.8,392L160.8,392A7.2,7.2,0,0,1,168,384.8M360,384.8L360,384.8A7.2,7.2,0,0,1,367.2,392L367.2,392A7.2,7.2,0,0,1,360,399.2L360,399.2A7.2,7.2,0,0,1,352.8,392L352.8,392A7.2,7.2,0,0,1,360,384.8M392,384.8L392,384.8A7.2,7.2,0,0,1,399.2,392L399.2,392A7.2,7.2,0,0,1,392,399.2L392,399.2A7.2,7.2,0,0,1,384.8,392L384.8,392A7.2,7.2,0,0,1,392,384.8M424,384.8L424,384.8A7.2,7.2,0,0,1,431.2,392L431.2,392A7.2,7.2,0,0,1,424,399.2L424,399.2A7.2,7.2,0,0,1,416.8,392L416.8,392A7.2,7.2,0,0,1,424,384.8M472,384.8L472,384.8A7.2,7.2,0,0,1,479.2,392L479.2,392A7.2,7.2,0,0,1,472,399.2L472,399.2A7.2,7.2,0,0,1,464.8,392L464.8,392A7.2,7.2,0,0,1,472,384.8M504,384.8L512,384.8L528,384.8L536,384.8A7.2,7.2,0,0,1,543.2,392L543.2,392A7.2,7.2,0,0,1,536,399.2L528,399.2L512,399.2L504,399.2A7.2,7.2,0,0,1,496.8,392L496.8,392A7.2,7.2,0,0,1,504,384.8ZM72,400.8L72,400.8A7.2,7.2,0,0,1,79.2,408L79.2,408A7.2,7.2,0,0,1,72,415.2L72,415.2A7.2,7.2,0,0,1,64.8,408L64.8,408A7.2,7.2,0,0,1,72,400.8M104,400.8L104,400.8A7.2,7.2,0,0,1,111.2,408L111.2,408A7.2,7.2,0,0,1,104,415.2L104,415.2A7.2,7.2,0,0,1,96.8,408L96.8,408A7.2,7.2,0,0,1,104,400.8M184,400.8L192,400.8L200,400.8A7.2,7.2,0,0,1,207.2,408L207.2,408A7.2,7.2,0,0,1,200,415.2L192,415.2L184,415.2A7.2,7.2,0,0,1,176.8,408L176.8,408A7.2,7.2,0,0,1,184,400.8M280,400.8L280,400.8A7.2,7.2,0,0,1,287.2,408L287.2,408A7.2,7.2,0,0,1,280,415.2L280,415.2A7.2,7.2,0,0,1,272.8,408L272.8,408A7.2,7.2,0,0,1,280,400.8M408,400.8L408,400.8A7.2,7.2,0,0,1,415.2,408L415.2,408A7.2,7.2,0,0,1,408,415.2L408,415.2A7.2,7.2,0,0,1,400.8,408L400.8,408A7.2,7.2,0,0,1,408,400.8M440,400.8L440,400.8A7.2,7.2,0,0,1,447.2,408L447.2,408A7.2,7.2,0,0,1,440,415.2L440,415.2A7.2,7.2,0,0,1,432.8,408L432.8,408A7.2,7.2,0,0,1,440,400.8M472,400.8L472,400.8A7.2,7.2,0,0,1,479.2,408L479.2,408A7.2,7.2,0,0,1,472,415.2L472,415.2A7.2,7.2,0,0,1,464.8,408L464.8,408A7.2,7.2,0,0,1,472,400.8M520,400.8L520,400.8A7.2,7.2,0,0,1,527.2,408L527.2,408A7.2,7.2,0,0,1,520,415.2L520,415.2A7.2,7.2,0,0,1,512.8,408L512.8,408A7.2,7.2,0,0,1,520,400.8ZM72,416.8L72,416.8A7.2,7.2,0,0,1,79.2,424L79.2,424A7.2,7.2,0,0,1,72,431.2L72,431.2A7.2,7.2,0,0,1,64.8,424L64.8,424A7.2,7.2,0,0,1,72,416.8M104,416.8L104,416.8A7.2,7.2,0,0,1,111.2,424L111.2,424A7.2,7.2,0,0,1,104,431.2L104,431.2A7.2,7.2,0,0,1,96.8,424L96.8,424A7.2,7.2,0,0,1,104,416.8M136,416.8L144,416.8L160,416.8L168,416.8A7.2,7.2,0,0,1,175.2,424L175.2,424A7.2,7.2,0,0,1,168,431.2L160,431.2L144,431.2L136,431.2A7.2,7.2,0,0,1,128.8,424L128.8,424A7.2,7.2,0,0,1,136,416.8M200,416.8L200,416.8A7.2,7.2,0,0,1,207.2,424L207.2,424A7.2,7.2,0,0,1,200,431.2L200,431.2A7.2,7.2,0,0,1,192.8,424L192.8,424A7.2,7.2,0,0,1,200,416.8M264,416.8L272,416.8L288,416.8L304,416.8L312,416.8A7.2,7.2,0,0,1,319.2,424L319.2,424A7.2,7.2,0,0,1,312,431.2L304,431.2L288,431.2L272,431.2L264,431.2A7.2,7.2,0,0,1,256.8,424L256.8,424A7.2,7.2,0,0,1,264,416.8M376,416.8L376,416.8A7.2,7.2,0,0,1,383.2,424L383.2,424A7.2,7.2,0,0,1,376,431.2L376,431.2A7.2,7.2,0,0,1,368.8,424L368.8,424A7.2,7.2,0,0,1,376,416.8M424,416.8L424,416.8A7.2,7.2,0,0,1,431.2,424L431.2,424A7.2,7.2,0,0,1,424,431.2L424,431.2A7.2,7.2,0,0,1,416.8,424L416.8,424A7.2,7.2,0,0,1,424,416.8M504,416.8L504,416.8A7.2,7.2,0,0,1,511.2,424L511.2,424A7.2,7.2,0,0,1,504,431.2L504,431.2A7.2,7.2,0,0,1,496.8,424L496.8,424A7.2,7.2,0,0,1,504,416.8M536,416.8L544,416.8L560,416.8L568,416.8A7.2,7.2,0,0,1,575.2,424L575.2,424A7.2,7.2,0,0,1,568,431.2L560,431.2L544,431.2L536,431.2A7.2,7.2,0,0,1,528.8,424L528.8,424A7.2,7.2,0,0,1,536,416.8ZM72,432.8L72,432.8A7.2,7.2,0,0,1,79.2,440L79.2,440A7.2,7.2,0,0,1,72,447.2L72,447.2A7.2,7.2,0,0,1,64.8,440L64.8,440A7.2,7.2,0,0,1,72,432.8M104,432.8L104,432.8A7.2,7.2,0,0,1,111.2,440L111.2,440A7.2,7.2,0,0,1,104,447.2L104,447.2A7.2,7.2,0,0,1,96.8,440L96.8,440A7.2,7.2,0,0,1,104,432.8M152,432.8L152,432.8A7.2,7.2,0,0,1,159.2,440L159.2,440A7.2,7.2,0,0,1,152,447.2L152,447.2A7.2,7.2,0,0,1,144.8,440L144.8,440A7.2,7.2,0,0,1,152,432.8M184,432.8L192,432.8L208,432.8L216,432.8A7.2,7.2,0,0,1,223.2,440L223.2,440A7.2,7.2,0,0,1,216,447.2L208,447.2L192,447.2L184,447.2A7.2,7.2,0,0,1,176.8,440L176.8,440A7.2,7.2,0,0,1,184,432.8M248,432.8L256,432.8L264,432.8A7.2,7.2,0,0,1,271.2,440L271.2,440A7.2,7.2,0,0,1,264,447.2L256,447.2L248,447.2A7.2,7.2,0,0,1,240.8,440L240.8,440A7.2,7.2,0,0,1,248,432.8M344,432.8L352,432.8L368,432.8L376,432.8A7.2,7.2,0,0,1,383.2,440L383.2,440A7.2,7.2,0,0,1,376,447.2L368,447.2L352,447.2L344,447.2A7.2,7.2,0,0,1,336.8,440L336.8,440A7.2,7.2,0,0,1,344,432.8M424,432.8L424,432.8A7.2,7.2,0,0,1,431.2,440L431.2,440A7.2,7.2,0,0,1,424,447.2L424,447.2A7.2,7.2,0,0,1,416.8,440L416.8,440A7.2,7.2,0,0,1,424,432.8M456,432.8L456,432.8A7.2,7.2,0,0,1,463.2,440L463.2,440A7.2,7.2,0,0,1,456,447.2L456,447.2A7.2,7.2,0,0,1,448.8,440L448.8,440A7.2,7.2,0,0,1,456,432.8M504,432.8L504,432.8A7.2,7.2,0,0,1,511.2,440L511.2,440A7.2,7.2,0,0,1,504,447.2L504,447.2A7.2,7.2,0,0,1,496.8,440L496.8,440A7.2,7.2,0,0,1,504,432.8M536,432.8L544,432.8L560,432.8L568,432.8A7.2,7.2,0,0,1,575.2,440L575.2,440A7.2,7.2,0,0,1,568,447.2L560,447.2L544,447.2L536,447.2A7.2,7.2,0,0,1,528.8,440L528.8,440A7.2,7.2,0,0,1,536,432.8ZM72,448.8L80,448.8L88,448.8A7.2,7.2,0,0,1,95.2,456L95.2,456A7.2,7.2,0,0,1,88,463.2L80,463.2L72,463.2A7.2,7.2,0,0,1,64.8,456L64.8,456A7.2,7.2,0,0,1,72,448.8M120,448.8L128,448.8L136,448.8A7.2,7.2,0,0,1,143.2,456L143.2,456A7.2,7.2,0,0,1,136,463.2L128,463.2L120,463.2A7.2,7.2,0,0,1,112.8,456L112.8,456A7.2,7.2,0,0,1,120,448.8M168,448.8L176,448.8L192,448.8L200,448.8A7.2,7.2,0,0,1,207.2,456L207.2,456A7.2,7.2,0,0,1,200,463.2L192,463.2L176,463.2L168,463.2A7.2,7.2,0,0,1,160.8,456L160.8,456A7.2,7.2,0,0,1,168,448.8M248,448.8L256,448.8L264,448.8A7.2,7.2,0,0,1,271.2,456L271.2,456A7.2,7.2,0,0,1,264,463.2L256,463.2L248,463.2A7.2,7.2,0,0,1,240.8,456L240.8,456A7.2,7.2,0,0,1,248,448.8M296,448.8L296,448.8A7.2,7.2,0,0,1,303.2,456L303.2,456A7.2,7.2,0,0,1,296,463.2L296,463.2A7.2,7.2,0,0,1,288.8,456L288.8,456A7.2,7.2,0,0,1,296,448.8M344,448.8L344,448.8A7.2,7.2,0,0,1,351.2,456L351.2,456A7.2,7.2,0,0,1,344,463.2L344,463.2A7.2,7.2,0,0,1,336.8,456L336.8,456A7.2,7.2,0,0,1,344,448.8M392,448.8L392,448.8A7.2,7.2,0,0,1,399.2,456L399.2,456A7.2,7.2,0,0,1,392,463.2L392,463.2A7.2,7.2,0,0,1,384.8,456L384.8,456A7.2,7.2,0,0,1,392,448.8M424,448.8L432,448.8L448,448.8L464,448.8L480,448.8L496,448.8L512,448.8L520,448.8A7.2,7.2,0,0,1,527.2,456L527.2,456A7.2,7.2,0,0,1,520,463.2L512,463.2L496,463.2L480,463.2L464,463.2L448,463.2L432,463.2L424,463.2A7.2,7.2,0,0,1,416.8,456L416.8,456A7.2,7.2,0,0,1,424,448.8M584,448.8L584,448.8A7.2,7.2,0,0,1,591.2,456L591.2,456A7.2,7.2,0,0,1,584,463.2L584,463.2A7.2,7.2,0,0,1,576.8,456L576.8,456A7.2,7.2,0,0,1,584,448.8ZM200,464.8L208,464.8L224,464.8L232,464.8A7.2,7.2,0,0,1,239.2,472L239.2,472A7.2,7.2,0,0,1,232,479.2L224,479.2L208,479.2L200,479.2A7.2,7.2,0,0,1,192.8,472L192.8,472A7.2,7.2,0,0,1,200,464.8M280,464.8L280,464.8A7.2,7.2,0,0,1,287.2,472L287.2,472A7.2,7.2,0,0,1,280,479.2L280,479.2A7.2,7.2,0,0,1,272.8,472L272.8,472A7.2,7.2,0,0,1,280,464.8M312,464.8L312,464.8A7.2,7.2,0,0,1,319.2,472L319.2,472A7.2,7.2,0,0,1,312,479.2L312,479.2A7.2,7.2,0,0,1,304.8,472L304.8,472A7.2,7.2,0,0,1,312,464.8M376,464.8L376,464.8A7.2,7.2,0,0,1,383.2,472L383.2,472A7.2,7.2,0,0,1,376,479.2L376,479.2A7.2,7.2,0,0,1,368.8,472L368.8,472A7.2,7.2,0,0,1,376,464.8M424,464.8L424,464.8A7.2,7.2,0,0,1,431.2,472L431.2,472A7.2,7.2,0,0,1,424,479.2L424,479.2A7.2,7.2,0,0,1,416.8,472L416.8,472A7.2,7.2,0,0,1,424,464.8M456,464.8L456,464.8A7.2,7.2,0,0,1,463.2,472L463.2,472A7.2,7.2,0,0,1,456,479.2L456,479.2A7.2,7.2,0,0,1,448.8,472L448.8,472A7.2,7.2,0,0,1,456,464.8M520,464.8L528,464.8L536,464.8A7.2,7.2,0,0,1,543.2,472L543.2,472A7.2,7.2,0,0,1,536,479.2L528,479.2L520,479.2A7.2,7.2,0,0,1,512.8,472L512.8,472A7.2,7.2,0,0,1,520,464.8M584,464.8L584,464.8A7.2,7.2,0,0,1,591.2,472L591.2,472A7.2,7.2,0,0,1,584,479.2L584,479.2A7.2,7.2,0,0,1,576.8,472L576.8,472A7.2,7.2,0,0,1,584,464.8ZM232,480.8L232,480.8A7.2,7.2,0,0,1,239.2,488L239.2,488A7.2,7.2,0,0,1,232,495.2L232,495.2A7.2,7.2,0,0,1,224.8,488L224.8,488A7.2,7.2,0,0,1,232,480.8M280,480.8L288,480.8L304,480.8L320,480.8L336,480.8L352,480.8L360,480.8A7.2,7.2,0,0,1,367.2,488L367.2,488A7.2,7.2,0,0,1,360,495.2L352,495.2L336,495.2L320,495.2L304,495.2L288,495.2L280,495.2A7.2,7.2,0,0,1,272.8,488L272.8,488A7.2,7.2,0,0,1,280,480.8M392,480.8L400,480.8L408,480.8A7.2,7.2,0,0,1,415.2,488L415.2,488A7.2,7.2,0,0,1,408,495.2L400,495.2L392,495.2A7.2,7.2,0,0,1,384.8,488L384.8,488A7.2,7.2,0,0,1,392,480.8M440,480.8L448,480.8L456,480.8A7.2,7.2,0,0,1,463.2,488L463.2,488A7.2,7.2,0,0,1,456,495.2L448,495.2L440,495.2A7.2,7.2,0,0,1,432.8,488L432.8,488A7.2,7.2,0,0,1,440,480.8M488,480.8L488,480.8A7.2,7.2,0,0,1,495.2,488L495.2,488A7.2,7.2,0,0,1,488,495.2L488,495.2A7.2,7.2,0,0,1,480.8,488L480.8,488A7.2,7.2,0,0,1,488,480.8M520,480.8L528,480.8L536,480.8A7.2,7.2,0,0,1,543.2,488L543.2,488A7.2,7.2,0,0,1,536,495.2L528,495.2L520,495.2A7.2,7.2,0,0,1,512.8,488L512.8,488A7.2,7.2,0,0,1,520,480.8M568,480.8L568,480.8A7.2,7.2,0,0,1,575.2,488L575.2,488A7.2,7.2,0,0,1,568,495.2L568,495.2A7.2,7.2,0,0,1,560.8,488L560.8,488A7.2,7.2,0,0,1,568,480.8ZM200,496.8L208,496.8L216,496.8A7.2,7.2,0,0,1,223.2,504L223.2,504A7.2,7.2,0,0,1,216,511.2L208,511.2L200,511.2A7.2,7.2,0,0,1,192.8,504L192.8,504A7.2,7.2,0,0,1,200,496.8M296,496.8L304,496.8L312,496.8A7.2,7.2,0,0,1,319.2,504L319.2,504A7.2,7.2,0,0,1,312,511.2L304,511.2L296,511.2A7.2,7.2,0,0,1,288.8,504L288.8,504A7.2,7.2,0,0,1,296,496.8M344,496.8L352,496.8L368,496.8L384,496.8L392,496.8A7.2,7.2,0,0,1,399.2,504L399.2,504A7.2,7.2,0,0,1,392,511.2L384,511.2L368,511.2L352,511.2L344,511.2A7.2,7.2,0,0,1,336.8,504L336.8,504A7.2,7.2,0,0,1,344,496.8M440,496.8L448,496.8L456,496.8A7.2,7.2,0,0,1,463.2,504L463.2,504A7.2,7.2,0,0,1,456,511.2L448,511.2L440,511.2A7.2,7.2,0,0,1,432.8,504L432.8,504A7.2,7.2,0,0,1,440,496.8M520,496.8L528,496.8L544,496.8L560,496.8L568,496.8A7.2,7.2,0,0,1,575.2,504L575.2,504A7.2,7.2,0,0,1,568,511.2L560,511.2L544,511.2L528,511.2L520,511.2A7.2,7.2,0,0,1,512.8,504L512.8,504A7.2,7.2,0,0,1,520,496.8ZM248,512.8L248,512.8A7.2,7.2,0,0,1,255.2,520L255.2,520A7.2,7.2,0,0,1,248,527.2L248,527.2A7.2,7.2,0,0,1,240.8,520L240.8,520A7.2,7.2,0,0,1,248,512.8M280,512.8L280,512.8A7.2,7.2,0,0,1,287.2,520L287.2,520A7.2,7.2,0,0,1,280,527.2L280,527.2A7.2,7.2,0,0,1,272.8,520L272.8,520A7.2,7.2,0,0,1,280,512.8M312,512.8L312,512.8A7.2,7.2,0,0,1,319.2,520L319.2,520A7.2,7.2,0,0,1,312,527.2L312,527.2A7.2,7.2,0,0,1,304.8,520L304.8,520A7.2,7.2,0,0,1,312,512.8M344,512.8L352,512.8L360,512.8A7.2,7.2,0,0,1,367.2,520L367.2,520A7.2,7.2,0,0,1,360,527.2L352,527.2L344,527.2A7.2,7.2,0,0,1,336.8,520L336.8,520A7.2,7.2,0,0,1,344,512.8M408,512.8L408,512.8A7.2,7.2,0,0,1,415.2,520L415.2,520A7.2,7.2,0,0,1,408,527.2L408,527.2A7.2,7.2,0,0,1,400.8,520L400.8,520A7.2,7.2,0,0,1,408,512.8M456,512.8L464,512.8L480,512.8L496,512.8L512,512.8L520,512.8A7.2,7.2,0,0,1,527.2,520L527.2,520A7.2,7.2,0,0,1,520,527.2L512,527.2L496,527.2L480,527.2L464,527.2L456,527.2A7.2,7.2,0,0,1,448.8,520L448.8,520A7.2,7.2,0,0,1,456,512.8M568,512.8L576,512.8L584,512.8A7.2,7.2,0,0,1,591.2,520L591.2,520A7.2,7.2,0,0,1,584,527.2L576,527.2L568,527.2A7.2,7.2,0,0,1,560.8,520L560.8,520A7.2,7.2,0,0,1,568,512.8ZM216,528.8L224,528.8L240,528.8L256,528.8L264,528.8A7.2,7.2,0,0,1,271.2,536L271.2,536A7.2,7.2,0,0,1,264,543.2L256,543.2L240,543.2L224,543.2L216,543.2A7.2,7.2,0,0,1,208.8,536L208.8,536A7.2,7.2,0,0,1,216,528.8M312,528.8L320,528.8L336,528.8L344,528.8A7.2,7.2,0,0,1,351.2,536L351.2,536A7.2,7.2,0,0,1,344,543.2L336,543.2L320,543.2L312,543.2A7.2,7.2,0,0,1,304.8,536L304.8,536A7.2,7.2,0,0,1,312,528.8M392,528.8L392,528.8A7.2,7.2,0,0,1,399.2,536L399.2,536A7.2,7.2,0,0,1,392,543.2L392,543.2A7.2,7.2,0,0,1,384.8,536L384.8,536A7.2,7.2,0,0,1,392,528.8M424,528.8L432,528.8L448,528.8L464,528.8L472,528.8A7.2,7.2,0,0,1,479.2,536L479.2,536A7.2,7.2,0,0,1,472,543.2L464,543.2L448,543.2L432,543.2L424,543.2A7.2,7.2,0,0,1,416.8,536L416.8,536A7.2,7.2,0,0,1,424,528.8M504,528.8L512,528.8L528,528.8L536,528.8A7.2,7.2,0,0,1,543.2,536L543.2,536A7.2,7.2,0,0,1,536,543.2L528,543.2L512,543.2L504,543.2A7.2,7.2,0,0,1,496.8,536L496.8,536A7.2,7.2,0,0,1,504,528.8M584,528.8L584,528.8A7.2,7.2,0,0,1,591.2,536L591.2,536A7.2,7.2,0,0,1,584,543.2L584,543.2A7.2,7.2,0,0,1,576.8,536L576.8,536A7.2,7.2,0,0,1,584,528.8ZM216,544.8L216,544.8A7.2,7.2,0,0,1,223.2,552L223.2,552A7.2,7.2,0,0,1,216,559.2L216,559.2A7.2,7.2,0,0,1,208.8,552L208.8,552A7.2,7.2,0,0,1,216,544.8M264,544.8L264,544.8A7.2,7.2,0,0,1,271.2,552L271.2,552A7.2,7.2,0,0,1,264,559.2L264,559.2A7.2,7.2,0,0,1,256.8,552L256.8,552A7.2,7.2,0,0,1,264,544.8M312,544.8L312,544.8A7.2,7.2,0,0,1,319.2,552L319.2,552A7.2,7.2,0,0,1,312,559.2L312,559.2A7.2,7.2,0,0,1,304.8,552L304.8,552A7.2,7.2,0,0,1,312,544.8M344,544.8L344,544.8A7.2,7.2,0,0,1,351.2,552L351.2,552A7.2,7.2,0,0,1,344,559.2L344,559.2A7.2,7.2,0,0,1,336.8,552L336.8,552A7.2,7.2,0,0,1,344,544.8M376,544.8L376,544.8A7.2,7.2,0,0,1,383.2,552L383.2,552A7.2,7.2,0,0,1,376,559.2L376,559.2A7.2,7.2,0,0,1,368.8,552L368.8,552A7.2,7.2,0,0,1,376,544.8M408,544.8L408,544.8A7.2,7.2,0,0,1,415.2,552L415.2,552A7.2,7.2,0,0,1,408,559.2L408,559.2A7.2,7.2,0,0,1,400.8,552L400.8,552A7.2,7.2,0,0,1,408,544.8M440,544.8L448,544.8L456,544.8A7.2,7.2,0,0,1,463.2,552L463.2,552A7.2,7.2,0,0,1,456,559.2L448,559.2L440,559.2A7.2,7.2,0,0,1,432.8,552L432.8,552A7.2,7.2,0,0,1,440,544.8ZM216,560.8L216,560.8A7.2,7.2,0,0,1,223.2,568L223.2,568A7.2,7.2,0,0,1,216,575.2L216,575.2A7.2,7.2,0,0,1,208.8,568L208.8,568A7.2,7.2,0,0,1,216,560.8M248,560.8L256,560.8L264,560.8A7.2,7.2,0,0,1,271.2,568L271.2,568A7.2,7.2,0,0,1,264,575.2L256,575.2L248,575.2A7.2,7.2,0,0,1,240.8,568L240.8,568A7.2,7.2,0,0,1,248,560.8M344,560.8L344,560.8A7.2,7.2,0,0,1,351.2,568L351.2,568A7.2,7.2,0,0,1,344,575.2L344,575.2A7.2,7.2,0,0,1,336.8,568L336.8,568A7.2,7.2,0,0,1,344,560.8M392,560.8L392,560.8A7.2,7.2,0,0,1,399.2,568L399.2,568A7.2,7.2,0,0,1,392,575.2L392,575.2A7.2,7.2,0,0,1,384.8,568L384.8,568A7.2,7.2,0,0,1,392,560.8M424,560.8L432,560.8L440,560.8A7.2,7.2,0,0,1,447.2,568L447.2,568A7.2,7.2,0,0,1,440,575.2L432,575.2L424,575.2A7.2,7.2,0,0,1,416.8,568L416.8,568A7.2,7.2,0,0,1,424,560.8M472,560.8L480,560.8L488,560.8A7.2,7.2,0,0,1,495.2,568L495.2,568A7.2,7.2,0,0,1,488,575.2L480,575.2L472,575.2A7.2,7.2,0,0,1,464.8,568L464.8,568A7.2,7.2,0,0,1,472,560.8ZM216,576.8L224,576.8L240,576.8L248,576.8A7.2,7.2,0,0,1,255.2,584L255.2,584A7.2,7.2,0,0,1,248,591.2L240,591.2L224,591.2L216,591.2A7.2,7.2,0,0,1,208.8,584L208.8,584A7.2,7.2,0,0,1,216,576.8M280,576.8L280,576.8A7.2,7.2,0,0,1,287.2,584L287.2,584A7.2,7.2,0,0,1,280,591.2L280,591.2A7.2,7.2,0,0,1,272.8,584L272.8,584A7.2,7.2,0,0,1,280,576.8M312,576.8L320,576.8L336,576.8L344,576.8A7.2,7.2,0,0,1,351.2,584L351.2,584A7.2,7.2,0,0,1,344,591.2L336,591.2L320,591.2L312,591.2A7.2,7.2,0,0,1,304.8,584L304.8,584A7.2,7.2,0,0,1,312,576.8M408,576.8L408,576.8A7.2,7.2,0,0,1,415.2,584L415.2,584A7.2,7.2,0,0,1,408,591.2L408,591.2A7.2,7.2,0,0,1,400.8,584L400.8,584A7.2,7.2,0,0,1,408,576.8M440,576.8L448,576.8L456,576.8A7.2,7.2,0,0,1,463.2,584L463.2,584A7.2,7.2,0,0,1,456,591.2L448,591.2L440,591.2A7.2,7.2,0,0,1,432.8,584L432.8,584A7.2,7.2,0,0,1,440,576.8Z" />
<path d="M4.7253,9.0689C6.179,9.0436 6.4149,7.6154 6.4149,6.769C6.4149,5.5163 5.775,5.0788 5,5C4.0425,5.4242 3.3403,6.146 3.2555,7.2606C3.2416,7.4443 3.237,7.6894 3.2516,7.9757C3.2906,8.7383 3.8493,9.0843 4.7253,9.0689 M 12.2447 10.8068 C 11.2047 10.8068 10.1118 10.1673 10.06 8.9707 C 8.8774 10.2223 7.0538 10.8186 4.7253 10.8186 C 2.3769 10.8186 1.396 9.2175 1.396 7.9703 C 1.4554 3.8126 1.3605 2.255 1.341 1.9353 C 1.3393 1.907 1.3381 1.8884 1.3377 1.8785 L 1.3373 1.8677 C 1.3313 1.7096 1.3224 1.4733 1.172 1.4572 C 1.0786 1.4472 1.0183 1.4757 0.911 1.6094 C 0.75 1.8233 0.425 1.908 0.2273 1.7937 C -0.0116 1.6555 -0.0562 1.3505 0.0647 1.0697 C 0.4002 0.3212 0.9379 -0.01 1.6625 0.0003 C 2.9146 0.0182 3.2738 0.8359 3.2738 1.8575 C 3.2738 1.8575 3.246 3.3292 3.246 4.1579 C 3.689 3.7969 4.3397 3.4098 5.4266 3.4098 C 7.6899 3.4098 9.1267 6.2118 7.6503 8.8925 C 9.5428 8.0197 9.9378 6.5164 10.0112 5.0238 L 10.0043 4.5203 C 10.0043 3.9552 10.3688 3.4767 10.9361 3.4767 C 11.5034 3.4767 11.8802 3.9877 11.86 4.5271 C 11.7919 6.3438 11.7644 7.5395 11.7644 8.1722 C 11.7644 8.5384 11.9642 9.0996 12.5555 9.0996 C 13.7134 9.0996 14.094 8.1922 14.1838 6.0595 C 14.1885 5.2642 14.1927 4.5997 14.1927 4.5997 C 13.6679 4.5997 13.4094 4.324 13.4094 3.9795 C 13.4094 3.635 13.683 3.3163 14.1321 3.3163 C 14.1321 3.3163 14.133 2.1182 14.133 1.622 C 14.133 1.0569 14.5715 0.5883 15.1388 0.5883 C 15.7062 0.5883 16.1567 1.0569 16.1567 1.622 C 16.1567 1.8095 16.1495 2.028 16.1416 2.2695 C 16.1315 2.5784 16.1201 2.9246 16.121 3.2909 L 16.2032 3.2905 H 16.2032 C 16.357 3.29 16.7051 3.2888 17.1681 3.2834 C 17.7198 3.2769 17.9445 3.5851 17.9445 3.9709 C 17.9445 4.3567 17.6475 4.626 17.2602 4.6276 C 16.9012 4.6291 16.1083 4.6247 16.1083 4.6247 C 16.0723 5.7674 16.0382 7.1451 16.0382 8.2475 C 16.0382 8.6451 16.3126 9.0995 16.9767 9.0995 C 18.3163 9.0995 18.8167 7.9092 18.9173 5.6498 C 18.9095 4.0766 18.8907 3.1653 18.8765 2.4785 V 2.4785 C 18.8666 1.9969 18.859 1.6258 18.859 1.2143 C 18.859 0.6493 19.3295 0.1442 19.8967 0.1442 C 20.4641 0.1442 20.8826 0.5977 20.8826 1.1627 C 20.8826 1.598 20.8651 2.1069 20.8413 2.8009 V 2.8009 V 2.801 C 20.801 3.9747 20.7425 5.6778 20.7195 8.4504 C 20.7165 8.8195 20.8967 9.0795 21.3748 9.0795 C 22.6524 9.0795 23.0066 7.6955 23.119 5.7625 C 23.1197 5.6695 23.1205 5.5785 23.1214 5.4891 L 23.1214 5.4887 C 23.1231 5.3054 23.1247 5.1289 23.1247 4.9561 C 23.1247 4.391 23.5011 3.9337 24.0686 3.9337 C 24.6359 3.9337 24.9694 4.4022 24.9694 4.9673 C 24.9694 5.3698 24.9562 5.7464 24.9427 6.1348 C 24.9307 6.4777 24.9184 6.8299 24.9146 7.2176 C 24.9047 8.2151 25.2455 9.0938 26.0756 9.0914 C 26.8726 9.0891 27.7479 8.7536 27.7691 7.045 C 27.7751 6.5701 27.7683 6.2053 27.7615 5.8371 V 5.837 V 5.8369 V 5.8368 C 27.7564 5.5642 27.7513 5.2897 27.7513 4.9673 C 27.7513 4.4022 28.1451 3.9337 28.7125 3.9337 C 29.2795 3.9337 29.6737 4.4022 29.6737 4.9673 C 29.6737 5.3051 29.6614 5.6415 29.6477 6.0145 V 6.0145 V 6.0146 V 6.0146 C 29.6307 6.4783 29.6117 6.9984 29.6117 7.6477 C 29.6117 7.6477 29.5769 10.0141 29.66 10.5378 C 29.9203 10.4512 30.2958 10.1968 30.6935 9.5802 C 30.9337 9.208 31.3928 9.1282 31.6758 9.293 C 32.0653 9.52 32.0514 9.9635 31.9058 10.2875 C 31.5298 11.1239 31.0409 11.6358 29.8047 12.0595 C 29.8086 13.4782 29.7098 15.5713 27.0868 15.9496 C 24.8405 16.2735 23.8244 14.9708 23.8211 13.8623 C 23.8157 12.112 25.5649 11.6022 28.0897 10.9665 L 28.0087 10.099 C 28.0087 10.099 27.4464 10.8364 26.0215 10.8008 C 24.9223 10.7733 24.1663 10.2543 23.7077 9.5213 C 23.1787 10.3901 22.3495 10.8105 21.1004 10.8105 C 20.2775 10.8105 19.4934 10.3758 19.1051 9.7457 C 18.5325 10.4308 17.7339 10.8015 16.6607 10.8015 C 15.7256 10.8015 15.0346 10.4786 14.6209 9.9746 C 14.087 10.5712 13.318 10.8068 12.2447 10.8068 Z M 28.2548 12.363 C 26.9786 12.6385 25.3798 13.0407 25.3983 13.8266 C 25.4158 14.5636 26.1767 14.6977 26.8111 14.5666 C 28.1286 14.2943 28.2816 13.5015 28.2548 12.363 Z M 11.9704 1.6249 C 11.9704 1.0544 11.5073 0.5932 10.9347 0.5932 C 10.3619 0.5932 9.8989 1.0544 9.8989 1.6249 C 9.8989 2.1953 10.3619 2.6566 10.9347 2.6566 C 11.5073 2.6566 11.9704 2.1953 11.9704 1.6249 Z" fill='#000000' transform='translate(520.000000, 556.000000) scale(2.250000, 2.250000)' />
</g>
<g id='corners-outer-1' style='fill:#000000' >
<path d="M64,64L80,64L96,64L112,64L128,64L144,64L160,64L176,64L176,80L176,96L176,112L176,128L176,144L176,160L176,176L160,176L144,176L128,176L112,176L96,176L80,176L64,176L64,160L64,144L64,128L64,112L64,96L64,80L64,64M80,80L80,96L80,112L80,128L80,144L80,160L96,160L112,160L128,160L144,160L160,160L160,144L160,128L160,112L160,96L160,80L144,80L128,80L112,80L96,80L80,80Z" />
</g>
<g id='corners-inner-1' style='fill:#000000' >
<path d="M96,96L112,96L128,96L144,96L144,112L144,128L144,144L128,144L112,144L96,144L96,128L96,112L96,96Z" />
</g>
<g id='corners-outer-2' style='fill:#000000' >
<path d="M480,64L496,64L512,64L528,64L544,64L560,64L576,64L592,64L592,80L592,96L592,112L592,128L592,144L592,160L592,176L576,176L560,176L544,176L528,176L512,176L496,176L480,176L480,160L480,144L480,128L480,112L480,96L480,80L480,64M496,80L496,96L496,112L496,128L496,144L496,160L512,160L528,160L544,160L560,160L576,160L576,144L576,128L576,112L576,96L576,80L560,80L544,80L528,80L512,80L496,80Z" />
</g>
<g id='corners-inner-2' style='fill:#000000' >
<path d="M512,96L528,96L544,96L560,96L560,112L560,128L560,144L544,144L528,144L512,144L512,128L512,112L512,96Z" />
</g>
<g id='corners-outer-3' style='fill:#000000' >
<path d="M64,480L80,480L96,480L112,480L128,480L144,480L160,480L176,480L176,496L176,512L176,528L176,544L176,560L176,576L176,592L160,592L144,592L128,592L112,592L96,592L80,592L64,592L64,576L64,560L64,544L64,528L64,512L64,496L64,480M80,496L80,512L80,528L80,544L80,560L80,576L96,576L112,576L128,576L144,576L160,576L160,560L160,544L160,528L160,512L160,496L144,496L128,496L112,496L96,496L80,496Z" />
</g>
<g id='corners-inner-3' style='fill:#000000' >
<path d="M96,512L112,512L128,512L144,512L144,528L144,544L144,560L128,560L112,560L96,560L96,544L96,528L96,512Z" />
</g>
</svg>
